<svg width="866" height="61" viewBox="0 0 866 61" fill="none" xmlns="http://www.w3.org/2000/svg">
<path d="M30.5 58.5C15.1 58.5 2.5 45.9 2.5 30.5C2.5 15.1 15.1 2.5 30.5 2.5H835.5C850.9 2.5 863.5 15.1 863.5 30.5C863.5 45.9 850.9 58.5 835.5 58.5H30.5Z" fill="#FAD9E2"/>
<path d="M835.5 5C849.6 5 861 16.4 861 30.5C861 44.6 849.6 56 835.5 56H30.5C16.4 56 5 44.6 5 30.5C5 16.4 16.4 5 30.5 5H835.5ZM835.5 0H30.5C13.7 0 0 13.7 0 30.5C0 47.3 13.7 61 30.5 61H835.5C852.3 61 866 47.3 866 30.5C866 13.7 852.3 0 835.5 0Z" fill="#EB668C"/>
<path d="M45.6 10L28.2 50.9C29 51 29.8 51 30.5 51H57.4L74.9 10H45.6Z" fill="#EB668C"/>
<path d="M92.6 10L75.1 51H104.4L121.9 10H92.6Z" fill="#EB668C"/>
<path d="M139.6 10L122.1 51H151.4L168.9 10H139.6Z" fill="#EB668C"/>
<path d="M186.6 10L169.1 51H198.4L215.9 10H186.6Z" fill="#EB668C"/>
<path d="M233.6 10L216.1 51H245.4L262.9 10H233.6Z" fill="#EB668C"/>
<path d="M280.6 10L263.1 51H292.4L309.9 10H280.6Z" fill="#EB668C"/>
<path d="M327.6 10L310.1 51H339.4L356.9 10H327.6Z" fill="#EB668C"/>
<path d="M374.6 10L357.1 51H386.4L403.9 10H374.6Z" fill="#EB668C"/>
<path d="M423.6 10.1L406.2 51C407 51.1 407.8 51.1 408.5 51.1H435.4L452.9 10.1H423.6Z" fill="#EB668C"/>
<path d="M470.6 10.1L453.1 51.1H482.4L499.9 10.1H470.6Z" fill="#EB668C"/>
<path d="M517.6 10.1L500.1 51.1H529.4L546.9 10.1H517.6Z" fill="#EB668C"/>
<path d="M564.6 10.1L547.1 51.1H576.4L593.9 10.1H564.6Z" fill="#EB668C"/>
<path d="M611.6 10.1L594.1 51.1H623.4L640.9 10.1H611.6Z" fill="#EB668C"/>
<path d="M658.6 10.1L641.1 51.1H670.4L687.9 10.1H658.6Z" fill="#EB668C"/>
<path d="M705.6 10.1L688.1 51.1H717.4L734.9 10.1H705.6Z" fill="#EB668C"/>
<path d="M752.6 10.1L735.1 51.1H764.4L781.9 10.1H752.6Z" fill="#EB668C"/>
<path d="M799.6 10.1L782.1 51.1H811.4L828.9 10.1H799.6Z" fill="#EB668C"/>
<path d="M861 30.5C861 22.2 857 14.8 850.8 10.1H846.6L829.1 51.1H850.5C856.9 46.5 861 39 861 30.5Z" fill="#EB668C"/>
<path d="M15.2 10.1C9 14.8 5 22.2 5 30.5C5 37.2 7.6 43.3 11.8 47.8L27.9 10.1H15.2Z" fill="#EB668C"/>
</svg>
