<svg width="340" height="374" viewBox="0 0 340 374" fill="none" xmlns="http://www.w3.org/2000/svg">
<path d="M25.2234 329.6H1.11538V336.908H9.09538V359H17.2434V336.908H25.2234V329.6ZM37.8316 359.756C44.5516 359.756 49.0036 355.64 49.0036 349.298V336.32H41.1916V348.962C41.1916 351.314 39.9316 352.742 37.8316 352.742C35.7736 352.742 34.4716 351.356 34.4716 348.962V336.32H26.6596V349.298C26.6596 355.64 31.1536 359.756 37.8316 359.756ZM62.3497 359.756C68.3977 359.756 72.3877 356.648 72.3877 351.902C72.3877 346.19 67.6417 345.434 64.0297 344.804C61.8877 344.426 60.1657 344.09 60.1657 342.83C60.1657 341.78 61.0057 341.15 62.2657 341.15C63.6517 341.15 64.6177 341.822 64.6177 343.25H71.9677C71.8837 338.672 68.1037 335.606 62.3497 335.606C56.5537 335.606 52.6477 338.546 52.6477 343.082C52.6477 348.584 57.3097 349.634 60.8377 350.222C63.0217 350.558 64.7437 350.936 64.7437 352.238C64.7437 353.414 63.6517 354.002 62.5177 354.002C61.0477 354.002 59.8717 353.246 59.8717 351.566H52.3537C52.4377 356.48 56.1757 359.756 62.3497 359.756ZM85.1548 359H92.9668V328.13H85.1548V359ZM97.9116 333.506H105.64V326.87H97.9116V333.506ZM97.8696 359H105.682V336.32H97.8696V359ZM119.32 359.756C125.368 359.756 129.358 356.648 129.358 351.902C129.358 346.19 124.612 345.434 121 344.804C118.858 344.426 117.136 344.09 117.136 342.83C117.136 341.78 117.976 341.15 119.236 341.15C120.622 341.15 121.588 341.822 121.588 343.25H128.938C128.854 338.672 125.074 335.606 119.32 335.606C113.524 335.606 109.618 338.546 109.618 343.082C109.618 348.584 114.28 349.634 117.808 350.222C119.992 350.558 121.714 350.936 121.714 352.238C121.714 353.414 120.622 354.002 119.488 354.002C118.018 354.002 116.842 353.246 116.842 351.566H109.324C109.408 356.48 113.146 359.756 119.32 359.756ZM145.121 352.196C143.483 352.196 142.475 351.188 142.475 349.592V342.368H147.977V336.32H142.307V329.726H140.669L130.505 340.52V342.368H134.663V350.894C134.663 355.934 137.729 359 142.727 359H148.103V352.196H145.121ZM169.871 336.32L169.073 338.084C167.225 336.53 164.831 335.648 162.143 335.648C155.213 335.648 150.257 340.646 150.257 347.66C150.257 354.716 155.213 359.756 162.143 359.756C164.789 359.756 167.141 358.916 168.989 357.404L169.661 359H175.709V336.32H169.871ZM163.193 352.868C160.253 352.868 158.111 350.642 158.111 347.66C158.111 344.72 160.253 342.536 163.193 342.536C166.133 342.536 168.275 344.72 168.275 347.66C168.275 350.642 166.133 352.868 163.193 352.868ZM189.375 359.756C195.423 359.756 199.413 356.648 199.413 351.902C199.413 346.19 194.667 345.434 191.055 344.804C188.913 344.426 187.191 344.09 187.191 342.83C187.191 341.78 188.031 341.15 189.291 341.15C190.677 341.15 191.643 341.822 191.643 343.25H198.993C198.909 338.672 195.129 335.606 189.375 335.606C183.579 335.606 179.673 338.546 179.673 343.082C179.673 348.584 184.335 349.634 187.863 350.222C190.047 350.558 191.769 350.936 191.769 352.238C191.769 353.414 190.677 354.002 189.543 354.002C188.073 354.002 186.897 353.246 186.897 351.566H179.379C179.463 356.48 183.201 359.756 189.375 359.756ZM203.117 366.35C207.443 365.972 210.425 362.99 210.425 358.412V351.776H202.781V359H206.435C206.435 360.806 205.343 362.318 203.117 362.486V366.35Z" fill="#EB668C"/>
<path d="M224.157 359H231.969V328.13H224.157V359ZM236.914 333.506H244.642V326.87H236.914V333.506ZM236.872 359H244.684V336.32H236.872V359ZM258.322 359.756C264.37 359.756 268.36 356.648 268.36 351.902C268.36 346.19 263.614 345.434 260.002 344.804C257.86 344.426 256.138 344.09 256.138 342.83C256.138 341.78 256.978 341.15 258.238 341.15C259.624 341.15 260.59 341.822 260.59 343.25H267.94C267.856 338.672 264.076 335.606 258.322 335.606C252.526 335.606 248.62 338.546 248.62 343.082C248.62 348.584 253.282 349.634 256.81 350.222C258.994 350.558 260.716 350.936 260.716 352.238C260.716 353.414 259.624 354.002 258.49 354.002C257.02 354.002 255.844 353.246 255.844 351.566H248.326C248.41 356.48 252.148 359.756 258.322 359.756ZM284.123 352.196C282.485 352.196 281.477 351.188 281.477 349.592V342.368H286.979V336.32H281.309V329.726H279.671L269.507 340.52V342.368H273.665V350.894C273.665 355.934 276.731 359 281.729 359H287.105V352.196H284.123ZM308.873 336.32L308.075 338.084C306.227 336.53 303.833 335.648 301.145 335.648C294.215 335.648 289.259 340.646 289.259 347.66C289.259 354.716 294.215 359.756 301.145 359.756C303.791 359.756 306.143 358.916 307.991 357.404L308.663 359H314.711V336.32H308.873ZM302.195 352.868C299.255 352.868 297.113 350.642 297.113 347.66C297.113 344.72 299.255 342.536 302.195 342.536C305.135 342.536 307.277 344.72 307.277 347.66C307.277 350.642 305.135 352.868 302.195 352.868ZM328.377 359.756C334.425 359.756 338.415 356.648 338.415 351.902C338.415 346.19 333.669 345.434 330.057 344.804C327.915 344.426 326.193 344.09 326.193 342.83C326.193 341.78 327.033 341.15 328.293 341.15C329.679 341.15 330.645 341.822 330.645 343.25H337.995C337.911 338.672 334.131 335.606 328.377 335.606C322.581 335.606 318.675 338.546 318.675 343.082C318.675 348.584 323.337 349.634 326.865 350.222C329.049 350.558 330.771 350.936 330.771 352.238C330.771 353.414 329.679 354.002 328.545 354.002C327.075 354.002 325.899 353.246 325.899 351.566H318.381C318.465 356.48 322.203 359.756 328.377 359.756Z" fill="#4B66AD"/>
<g clip-path="url(#clip0)">
<path d="M259.4 0C242.7 0 227.4 9.4 219.8 24.3L170 122.8L162.2 107.6C154.6 92.7 144.7 83.4 128 83.4H125.8C91.7 83.4 72.3 120.1 89.2 149.7L123.6 207H149.1V188L119.2 135.6C115.7 129.5 115.7 122.2 119.3 116.2C122.8 110.1 129.1 106.5 136.1 106.5H136.2C143.6 106.5 150.2 110.6 153.5 117.1L169.9 144.5L186.4 117.1C189.8 110.6 196.4 106.5 203.7 106.5C210.7 106.5 217 110.1 220.6 116.2C222.5 119.6 223.4 123.3 223.2 127C227.1 126 231.3 125.4 235.7 125.4C245.1 125.4 253.4 127.8 260.3 132L297.9 66.5C314.8 36.9 293.5 0 259.4 0Z" fill="#EB668C"/>
<path d="M193.7 182.6L190.5 188.1V207H214.3C204.4 201.9 197.1 193.3 193.7 182.6Z" fill="#EB658A"/>
<path d="M304.3 159.6C297.5 158.4 292 157.4 292 153.3C292 150 294.7 148 298.6 148C301.4 148 303.6 148.8 304.9 150.5C306.9 153.1 309.9 154.7 313.2 154.7C323.3 154.7 327.5 141.5 319.1 135.8C313.9 132.3 307 130.4 298.8 130.4C286.2 130.4 276.4 134.8 271.5 142.2C276.9 149.3 279.9 158.2 279.9 167.9V168C279.9 169.6 279.4 171 278.5 172.2C283.3 174.7 289 175.9 294 176.7C300.9 177.8 306.3 179 306.3 183.2C306.3 186.9 302.9 188.8 299.2 188.8C296.1 188.8 293.5 187.8 292.1 185.6C290.1 182.7 286.7 181.1 283.1 181.1C272.8 181.1 268.2 194.2 276.3 200.5C281.7 204.7 289.3 207 298.7 207C317.8 207 330.5 197.2 330.5 182.2C330.7 163.9 315.7 161.6 304.3 159.6Z" fill="#EB668C"/>
<path d="M123.5 241.6V288.4H97.8V244.8C97.8 237 94.9 233.2 89.5 233.2C82.4 233.2 78.8 238.1 78.8 247.5V288.4H53.8V244.8C53.8 237.2 51 233.2 45.6 233.2C38.6 233.2 34.8 238.2 34.8 247.5V288.4H9V221.8C9 217.3 12.6 213.7 17.1 213.7H22.7C27.1 213.7 30.7 217.3 30.8 221.7C36.2 215.4 44 211.5 52.6 211.5C61.7 211.5 69.4 215.6 74 222.5C79.4 215.7 87.6 211.5 96.9 211.5C112.9 211.6 123.5 224.1 123.5 241.6Z" fill="#4B66AD"/>
<path d="M330.7 241.6V288.4H305V244.8C305 237 302.1 233.2 296.7 233.2C289.6 233.2 286 238.1 286 247.5V288.4H261V244.8C261 237.2 258.2 233.2 252.8 233.2C245.8 233.2 242 238.2 242 247.5V288.4H216.3V221.8C216.3 217.4 219.9 213.8 224.3 213.8H230C234.4 213.8 238 217.4 238 221.8C243.4 215.5 251.2 211.6 259.8 211.6C268.9 211.6 276.6 215.7 281.2 222.6C286.6 215.8 294.8 211.6 304.1 211.6C320.1 211.6 330.7 224.1 330.7 241.6Z" fill="#4B66AD"/>
<path d="M215.9 133C218.4 128.6 218.4 123.4 215.9 119C213.4 114.6 208.8 112 203.7 112C198.4 112 193.6 115 191.2 119.7L191.1 119.9L169.9 155L148.7 119.6C146.3 114.8 141.5 111.9 136.2 111.9H136C130.9 111.9 126.4 114.5 123.8 118.9C121.3 123.3 121.2 128.5 123.7 132.9L154.3 186.6V213.7C158.9 212.1 164 211.3 169.5 211.3C175 211.3 180.2 212.2 184.9 213.8V186.6L215.9 133Z" fill="#EB668C"/>
<path d="M185.1 213.9C180.4 212.3 175.2 211.4 169.7 211.4C164.3 211.4 159.2 212.2 154.5 213.8C138.4 219.2 127.8 233.2 127.8 251.2C127.8 274.3 145.3 291 169.7 291C194 291 211.6 274.3 211.6 251.2C211.5 233.3 201 219.3 185.1 213.9ZM175.8 265.4C174.2 266.8 172.4 268.3 170.6 269.9C170.4 270.1 170 270.2 169.7 270.2C169.4 270.2 169.1 270.1 168.8 269.9C166.9 268.3 165.1 266.7 163.6 265.4C154.3 257.4 148.1 252.2 148.1 244.5C148.1 239.4 150.7 235.2 154.6 233.2C156.1 232.4 157.8 232 159.6 232C161.9 232 164.1 232.7 166 234.2C167.8 235.6 169 237.4 169.7 238.7C170.4 237.4 171.6 235.6 173.4 234.2C175.3 232.7 177.4 232 179.8 232C181.7 232 183.5 232.5 185.1 233.3C188.8 235.3 191.3 239.4 191.3 244.5C191.3 252.2 185.1 257.4 175.8 265.4Z" fill="#4B66AD"/>
<path d="M235.5 130.4C230.7 130.4 226.2 131.1 222 132.5C221.6 133.6 197.2 176.4 197.2 176.4C200.6 194.3 215.8 207 235.5 207C251.3 207 264.4 199.2 270.8 186.2C272.1 183.5 270.2 180.3 267.1 180.3H248.5C246.1 184.5 241.3 187 235.5 187C227.7 187 222.4 182.7 220.8 174.5H268.2C271.8 174.5 274.7 171.6 274.7 168V167.9C274.7 147 258.7 130.4 235.5 130.4ZM221.3 160.9C223.3 153.8 228.3 149.8 235.5 149.8C243 149.8 248.1 153.7 250.3 160.9H221.3Z" fill="#EB668C"/>
</g>
<defs>
<clipPath id="clip0">
<rect width="321.7" height="290.9" fill="white" transform="translate(9)"/>
</clipPath>
</defs>
</svg>
